# xmcd
#
# Track frame offsets:
#      150
#      14219
#      31494
#      48425
#      58163
#      73414
#      86945
#      102943
#      115739
#      133208
#      145170
#      156016
#      169987
#      190536
#      201613
#      211134
#
# Disc length: 2977 seconds
#
# Revision: 0
# Processed by: cddbd v1.4PL0 Copyright (c) Steve Scherf et al.
# Submitted via: SoundClick v1.0
#
DISCID=fa0b9f10
DTITLE=Steve O'Connor - FOR THE GOOD TIMES
DYEAR=1900
DGENRE=
TTITLE0=For The Good Times
TTITLE1=Old Dogs And Children
TTITLE2=Green, Green Grass Of Home
TTITLE3=A White Sport Coat
TTITLE4=Rhinestone Cowboy
TTITLE5=Wolverton Mountain
TTITLE6=Llittle Old Wine Drinker Me
TTITLE7=Blue Eyes Crying In The Rain
TTITLE8=After The Loving
TTITLE9=Try A Little Kindness
TTITLE10=Singin' The Blues
TTITLE11=The Last Waltz
TTITLE12=Nobody's Child
TTITLE13=I'm Counting On You
TTITLE14=Sing (and Tell The Blues So Long)
TTITLE15=Ten Guitars
EXTD=
EXTT0=
EXTT1=
EXTT2=
EXTT3=
EXTT4=
EXTT5=
EXTT6=
EXTT7=
EXTT8=
EXTT9=
EXTT10=
EXTT11=
EXTT12=
EXTT13=
EXTT14=
EXTT15=
PLAYORDER=
